<?xml version="1.0" encoding="UTF-8"?>
<!DOCTYPE svg PUBLIC "-//W3C//DTD SVG 1.1//EN" "http://www.w3.org/Graphics/SVG/1.1/DTD/svg11.dtd">
<svg xmlns="http://www.w3.org/2000/svg" version="1.1" width="659px" height="176px" style="shape-rendering:geometricPrecision; text-rendering:geometricPrecision; image-rendering:optimizeQuality; fill-rule:evenodd; clip-rule:evenodd" xmlns:xlink="http://www.w3.org/1999/xlink">
<g><path style="opacity:1" fill="#1c5c97" d="M 39.5,51.5 C 38.475,51.8966 38.3083,52.5632 39,53.5C 39.9947,52.9341 40.828,52.2674 41.5,51.5C 46.1179,47.6935 51.4512,45.1935 57.5,44C 86.5906,40.8795 102.591,53.8795 105.5,83C 105.061,86.9188 104.394,90.7521 103.5,94.5C 101.656,96.2789 100.99,98.6122 101.5,101.5C 91.1136,127.695 71.7803,139.861 43.5,138C 37.3571,136.346 31.8571,133.512 27,129.5C 25.7225,131.747 24.2225,133.747 22.5,135.5C 15.5,135.5 8.5,135.5 1.5,135.5C 1.5,134.5 1.5,133.5 1.5,132.5C 7.67201,89.7968 14.172,47.1301 21,4.5C 29.4149,3.51677 37.9149,3.18344 46.5,3.5C 44.725,19.592 42.3916,35.592 39.5,51.5 Z M 53.5,66.5 C 69.1574,64.6711 77.824,71.5044 79.5,87C 78.0984,104.067 68.9317,113.567 52,115.5C 40.2192,115.219 33.7192,109.219 32.5,97.5C 32.3634,82.0504 39.3634,71.7171 53.5,66.5 Z"/></g>
<g><path style="opacity:1" fill="#2a619b" d="M 132.5,32.5 C 132.027,31.0937 131.027,30.427 129.5,30.5C 124.409,20.5951 126.743,12.7618 136.5,7C 146.637,3.73353 152.97,7.23353 155.5,17.5C 152.972,30.9084 145.305,35.9084 132.5,32.5 Z"/></g>
<g><path style="opacity:0.51" fill="#97b5d1" d="M 129.5,30.5 C 131.027,30.427 132.027,31.0937 132.5,32.5C 130.973,32.573 129.973,31.9063 129.5,30.5 Z"/></g>
<g><path style="opacity:0.563" fill="#bceba7" d="M 330.5,38.5 C 314.167,38.5 297.833,38.5 281.5,38.5C 281.5,74.5 281.5,110.5 281.5,146.5C 281.167,146.5 280.833,146.5 280.5,146.5C 280.5,110.167 280.5,73.8333 280.5,37.5C 297.342,37.1702 314.008,37.5035 330.5,38.5 Z"/></g>
<g><path style="opacity:1" fill="#80d959" d="M 330.5,38.5 C 336.061,58.7035 341.561,79.0369 347,99.5C 349.037,91.6713 351.203,84.0046 353.5,76.5C 354.924,74.4855 355.59,72.1522 355.5,69.5C 357.367,59.6995 359.7,50.0329 362.5,40.5C 378.26,38.5387 394.26,37.872 410.5,38.5C 410.5,74.5 410.5,110.5 410.5,146.5C 399.167,146.5 387.833,146.5 376.5,146.5C 376.236,125.147 376.569,103.814 377.5,82.5C 378.451,81.0813 378.784,79.4147 378.5,77.5C 378.167,74.8333 377.833,74.8333 377.5,77.5C 376.662,77.8417 376.328,78.5084 376.5,79.5C 371.258,102.143 365.258,124.476 358.5,146.5C 349.083,146.805 339.75,146.472 330.5,145.5C 324.348,123.894 318.348,102.227 312.5,80.5C 312.737,79.209 312.404,78.209 311.5,77.5C 310.58,76.9326 310.246,77.5992 310.5,79.5C 310.232,81.099 310.566,82.4324 311.5,83.5C 312.363,89.4549 312.697,95.4549 312.5,101.5C 312.5,116.5 312.5,131.5 312.5,146.5C 302.167,146.5 291.833,146.5 281.5,146.5C 281.5,110.5 281.5,74.5 281.5,38.5C 297.833,38.5 314.167,38.5 330.5,38.5 Z"/></g>
<g><path style="opacity:0.643" fill="#bceba8" d="M 376.5,146.5 C 387.833,146.5 399.167,146.5 410.5,146.5C 410.5,110.5 410.5,74.5 410.5,38.5C 394.26,37.872 378.26,38.5387 362.5,40.5C 362.5,39.5 362.5,38.5 362.5,37.5C 378.833,37.5 395.167,37.5 411.5,37.5C 411.5,74.1667 411.5,110.833 411.5,147.5C 399.655,147.828 387.988,147.495 376.5,146.5 Z"/></g>
<g><path style="opacity:1" fill="#7ed957" d="M 432.5,38.5 C 463.833,38.5 495.167,38.5 526.5,38.5C 526.5,46.8333 526.5,55.1667 526.5,63.5C 506.833,63.5 487.167,63.5 467.5,63.5C 467.5,68.8333 467.5,74.1667 467.5,79.5C 484.5,79.5 501.5,79.5 518.5,79.5C 518.5,87.5 518.5,95.5 518.5,103.5C 501.5,103.5 484.5,103.5 467.5,103.5C 467.5,109.167 467.5,114.833 467.5,120.5C 485.5,120.5 503.5,120.5 521.5,120.5C 523.5,120.5 525.5,120.5 527.5,120.5C 527.5,129.167 527.5,137.833 527.5,146.5C 495.833,146.5 464.167,146.5 432.5,146.5C 432.5,110.5 432.5,74.5 432.5,38.5 Z"/></g>
<g><path style="opacity:0.338" fill="#d3f2c6" d="M 605.5,38.5 C 586.167,38.5 566.833,38.5 547.5,38.5C 547.5,74.5 547.5,110.5 547.5,146.5C 566.167,146.5 584.833,146.5 603.5,146.5C 584.674,147.497 565.674,147.83 546.5,147.5C 546.5,110.833 546.5,74.1667 546.5,37.5C 566.34,37.1696 586.007,37.5029 605.5,38.5 Z"/></g>
<g><path style="opacity:1" fill="#80d959" d="M 605.5,38.5 C 632.466,40.2984 647.633,54.6317 651,81.5C 653.206,96.9289 650.873,111.596 644,125.5C 634.116,139.194 620.616,146.194 603.5,146.5C 584.833,146.5 566.167,146.5 547.5,146.5C 547.5,110.5 547.5,74.5 547.5,38.5C 566.833,38.5 586.167,38.5 605.5,38.5 Z M 598.5,64.5 C 602.544,65.3558 606.211,67.0224 609.5,69.5C 609.932,70.7095 610.599,71.7095 611.5,72.5C 615.729,83.488 616.563,94.8213 614,106.5C 613.014,109.806 611.514,112.806 609.5,115.5C 607.973,115.427 606.973,116.094 606.5,117.5C 599.368,119.799 592.034,120.799 584.5,120.5C 582.533,102.069 581.866,83.402 582.5,64.5C 587.833,64.5 593.167,64.5 598.5,64.5 Z"/></g>
<g><path style="opacity:1" fill="#1e5c97" d="M 184.5,132.5 C 184.027,131.094 183.027,130.427 181.5,130.5C 180.883,130.389 180.383,130.056 180,129.5C 178.258,142.618 176.091,155.618 173.5,168.5C 172.596,169.209 172.263,170.209 172.5,171.5C 164.5,171.5 156.5,171.5 148.5,171.5C 148.5,170.5 148.5,169.5 148.5,168.5C 154.184,127.728 160.518,87.0617 167.5,46.5C 174.833,45.1667 182.167,45.1667 189.5,46.5C 190.333,48.1667 191.167,49.8333 192,51.5C 196.955,47.8464 202.455,45.3464 208.5,44C 238.138,40.1502 254.805,52.9836 258.5,82.5C 256.194,110.957 241.527,129.457 214.5,138C 203.634,140.026 193.634,138.193 184.5,132.5 Z M 223.5,68.5 C 224.167,69.8333 225.167,70.8333 226.5,71.5C 232.56,78.8594 234.06,87.1927 231,96.5C 224.131,111.518 212.631,117.351 196.5,114C 193.798,112.988 191.465,111.488 189.5,109.5C 189.573,107.973 188.906,106.973 187.5,106.5C 183.797,92.1527 187.463,79.9861 198.5,70C 206.64,66.0158 214.973,65.5158 223.5,68.5 Z"/></g>
<g><path style="opacity:0.055" fill="#f1f5f8" d="M 123.5,46.5 C 131.984,45.507 140.651,45.1736 149.5,45.5C 149.737,46.791 149.404,47.791 148.5,48.5C 140.567,46.5316 132.234,45.865 123.5,46.5 Z"/></g>
<g><path style="opacity:1" fill="#1e5c97" d="M 123.5,46.5 C 132.234,45.865 140.567,46.5316 148.5,48.5C 144.637,76.9382 140.304,105.272 135.5,133.5C 127.436,135.422 119.103,136.088 110.5,135.5C 110.5,134.5 110.5,133.5 110.5,132.5C 114.646,103.809 118.98,75.1422 123.5,46.5 Z"/></g>
<g><path style="opacity:0.518" fill="#9cbbd3" d="M 39.5,51.5 C 40.1667,51.5 40.8333,51.5 41.5,51.5C 40.828,52.2674 39.9947,52.9341 39,53.5C 38.3083,52.5632 38.475,51.8966 39.5,51.5 Z"/></g>
<g><path style="opacity:0.261" fill="#d9f4cd" d="M 432.5,38.5 C 463.996,37.5018 495.662,37.1685 527.5,37.5C 527.5,46.5 527.5,55.5 527.5,64.5C 507.833,64.5 488.167,64.5 468.5,64.5C 468.5,69.1667 468.5,73.8333 468.5,78.5C 485.342,78.1702 502.008,78.5035 518.5,79.5C 501.5,79.5 484.5,79.5 467.5,79.5C 467.5,74.1667 467.5,68.8333 467.5,63.5C 487.167,63.5 506.833,63.5 526.5,63.5C 526.5,55.1667 526.5,46.8333 526.5,38.5C 495.167,38.5 463.833,38.5 432.5,38.5 Z"/></g>
<g><path style="opacity:0.941" fill="#92accb" d="M 223.5,68.5 C 225.5,68.5 226.5,69.5 226.5,71.5C 225.167,70.8333 224.167,69.8333 223.5,68.5 Z"/></g>
<g><path style="opacity:0.965" fill="#c4edae" d="M 609.5,69.5 C 611.048,69.8212 611.715,70.8212 611.5,72.5C 610.599,71.7095 609.932,70.7095 609.5,69.5 Z"/></g>
<g><path style="opacity:0.945" fill="#b4e89a" d="M 355.5,69.5 C 355.59,72.1522 354.924,74.4855 353.5,76.5C 353.41,73.8478 354.076,71.5145 355.5,69.5 Z"/></g>
<g><path style="opacity:0.063" fill="#edfae8" d="M 377.5,77.5 C 377.833,77.5 378.167,77.5 378.5,77.5C 378.784,79.4147 378.451,81.0813 377.5,82.5C 377.737,81.209 377.404,80.209 376.5,79.5C 376.328,78.5084 376.662,77.8417 377.5,77.5 Z"/></g>
<g><path style="opacity:0.024" fill="#e8f8e0" d="M 311.5,77.5 C 312.404,78.209 312.737,79.209 312.5,80.5C 311.596,81.209 311.263,82.209 311.5,83.5C 310.566,82.4324 310.232,81.099 310.5,79.5C 311.338,79.1583 311.672,78.4916 311.5,77.5 Z"/></g>
<g><path style="opacity:0.167" fill="#e6f7de" d="M 598.5,64.5 C 593.167,64.5 587.833,64.5 582.5,64.5C 581.866,83.402 582.533,102.069 584.5,120.5C 583.5,120.5 582.5,120.5 581.5,120.5C 581.5,101.5 581.5,82.5 581.5,63.5C 587.358,63.1778 593.025,63.5111 598.5,64.5 Z"/></g>
<g><path style="opacity:0.975" fill="#7293bb" d="M 103.5,94.5 C 103.279,97.0673 102.612,99.4006 101.5,101.5C 100.99,98.6122 101.656,96.2789 103.5,94.5 Z"/></g>
<g><path style="opacity:0.007" fill="#f4fbf1" d="M 518.5,103.5 C 502.008,104.497 485.342,104.83 468.5,104.5C 468.5,109.5 468.5,114.5 468.5,119.5C 486.341,119.17 504.008,119.503 521.5,120.5C 503.5,120.5 485.5,120.5 467.5,120.5C 467.5,114.833 467.5,109.167 467.5,103.5C 484.5,103.5 501.5,103.5 518.5,103.5 Z"/></g>
<g><path style="opacity:0.439" fill="#9cb9d3" d="M 187.5,106.5 C 188.906,106.973 189.573,107.973 189.5,109.5C 188.094,109.027 187.427,108.027 187.5,106.5 Z"/></g>
<g><path style="opacity:0.745" fill="#c3edaf" d="M 609.5,115.5 C 609.027,116.906 608.027,117.573 606.5,117.5C 606.973,116.094 607.973,115.427 609.5,115.5 Z"/></g>
<g><path style="opacity:0.471" fill="#9ebad4" d="M 181.5,130.5 C 183.027,130.427 184.027,131.094 184.5,132.5C 182.973,132.573 181.973,131.906 181.5,130.5 Z"/></g>
<g><path style="opacity:0.249" fill="#c3d6e5" d="M 1.5,132.5 C 1.5,133.5 1.5,134.5 1.5,135.5C 8.5,135.5 15.5,135.5 22.5,135.5C 15.3524,136.492 8.01905,136.825 0.5,136.5C 0.232191,134.901 0.565525,133.568 1.5,132.5 Z"/></g>
<g><path style="opacity:0.243" fill="#c2d5e4" d="M 110.5,132.5 C 110.5,133.5 110.5,134.5 110.5,135.5C 119.103,136.088 127.436,135.422 135.5,133.5C 135.5,134.5 135.5,135.5 135.5,136.5C 126.833,136.5 118.167,136.5 109.5,136.5C 109.232,134.901 109.566,133.568 110.5,132.5 Z"/></g>
<g><path style="opacity:0.256" fill="#e7f8e0" d="M 312.5,101.5 C 313.496,116.658 313.83,131.991 313.5,147.5C 302.321,147.828 291.321,147.495 280.5,146.5C 280.833,146.5 281.167,146.5 281.5,146.5C 291.833,146.5 302.167,146.5 312.5,146.5C 312.5,131.5 312.5,116.5 312.5,101.5 Z"/></g>
<g><path style="opacity:0.26" fill="#ddf5d3" d="M 330.5,145.5 C 339.75,146.472 349.083,146.805 358.5,146.5C 354.012,147.166 349.346,147.499 344.5,147.5C 339.449,147.493 334.783,146.827 330.5,145.5 Z"/></g>
<g><path style="opacity:0.268" fill="#dcf5d2" d="M 527.5,120.5 C 528.493,129.318 528.827,138.318 528.5,147.5C 496.329,147.832 464.329,147.498 432.5,146.5C 464.167,146.5 495.833,146.5 527.5,146.5C 527.5,137.833 527.5,129.167 527.5,120.5 Z"/></g>
<g><path style="opacity:0.331" fill="#adc7db" d="M 148.5,168.5 C 148.5,169.5 148.5,170.5 148.5,171.5C 156.5,171.5 164.5,171.5 172.5,171.5C 172.263,170.209 172.596,169.209 173.5,168.5C 173.5,169.833 173.5,171.167 173.5,172.5C 164.833,172.5 156.167,172.5 147.5,172.5C 147.232,170.901 147.566,169.568 148.5,168.5 Z"/></g>
</svg>
